<?xml version="1.0" encoding="utf-8"?>
<!-- Generator: Adobe Illustrator 14.0.0, SVG Export Plug-In . SVG Version: 6.00 Build 43363)  -->
<!DOCTYPE svg PUBLIC "-//W3C//DTD SVG 1.1 Basic//EN" "http://www.w3.org/Graphics/SVG/1.1/DTD/svg11-basic.dtd">
<svg version="1.1" baseProfile="basic" id="Layer_1"
	 xmlns="http://www.w3.org/2000/svg" xmlns:xlink="http://www.w3.org/1999/xlink" x="0px" y="0px" width="216px" height="216px"
	 viewBox="0 0 216 216" xml:space="preserve">
<g>
	<path fill="#00539F" d="M76.712,93.775h5.02v2.51h-5.02V93.775z"/>
	<path fill="#00539F" d="M143.225,88.756c2.076,0,3.766-1.689,3.766-3.766V72.441c0-2.076-1.689-3.766-3.766-3.766h-17.568
		c-2.076,0-3.766,1.689-3.766,3.766V84.99c0,2.076,1.689,3.766,3.766,3.766h3.764v2.51h-2.51v2.51h6.275v12.55h-5.18
		c-1.002-0.978-2.234-1.727-3.615-2.138c0.008-0.127,0.01-0.249,0.01-0.372c0-5.536-4.504-10.04-10.04-10.04
		c-3.435,0-6.626,1.787-8.456,4.645c-1.288-0.578-2.681-0.88-4.094-0.88c-4.166,0-7.916,2.625-9.382,6.477
		c-0.954,0.204-1.842,0.57-2.649,1.054h-9.303v-3.766h5.02c2.075,0,3.765-1.689,3.765-3.765V72.441c0-2.076-1.69-3.766-3.765-3.766
		h-12.55c-2.076,0-3.765,1.689-3.765,3.766V97.54c0,2.075,1.689,3.765,3.765,3.765h5.02v6.275h9.144
		c-0.534,0.761-0.948,1.603-1.22,2.51h-5.414v13.805h-5.02c-2.075,0-3.765,1.688-3.765,3.765v11.295h-2.51v3.765
		c0,2.075,1.689,3.765,3.765,3.765h20.08c2.075,0,3.766-1.689,3.766-3.765v-3.765h-2.51v-11.295c0-2.076-1.69-3.765-3.765-3.765
		h-7.53V112.6h2.51c0,4.843,3.942,8.784,8.785,8.784h27.609c4.416,0,8.071-3.279,8.684-7.529h5.121v10.04h-8.785v22.589h20.08
		v-22.589h-8.786v-12.55h-7.635c-0.13-0.884-0.401-1.725-0.78-2.51h5.906v-15.06h6.275v-2.51h-2.512v-2.51H143.225z M86.751,88.756
		h-15.06V76.205h15.06V88.756z M72.947,71.186h12.55c0.692,0,1.255,0.563,1.255,1.256v1.254h-15.06v-1.254
		C71.692,71.748,72.254,71.186,72.947,71.186z M71.692,97.54v-6.274h15.06v6.274c0,0.692-0.563,1.255-1.255,1.255h-12.55
		C72.254,98.795,71.692,98.232,71.692,97.54z M94.282,142.719c0,0.692-0.563,1.255-1.255,1.255h-20.08
		c-0.692,0-1.255-0.563-1.255-1.255v-1.255h22.59V142.719z M91.771,127.659v11.295H74.202v-11.295c0-0.692,0.563-1.254,1.255-1.254
		h15.06C91.208,126.405,91.771,126.967,91.771,127.659z M129.42,143.974v-7.529h15.061v7.529H129.42z M144.48,133.935H129.42v-7.529
		h15.061V133.935z M121.891,118.874H94.282c-3.46,0-6.275-2.814-6.275-6.274c0-3.173,2.375-5.849,5.522-6.225l0.824-0.1l0.232-0.796
		c0.927-3.197,3.901-5.43,7.227-5.43c1.385,0,2.746,0.39,3.938,1.124l1.197,0.738l0.598-1.276c1.235-2.645,3.911-4.351,6.816-4.351
		c4.153,0,7.53,3.377,7.53,7.53c0,0.346-0.031,0.715-0.1,1.16l-0.188,1.241l1.24,0.188c3.033,0.463,5.322,3.127,5.322,6.194
		C128.166,116.06,125.351,118.874,121.891,118.874z M125.656,71.186h17.568c0.691,0,1.256,0.563,1.256,1.256v8.784H124.4v-8.784
		C124.4,71.748,124.964,71.186,125.656,71.186z M124.4,84.99v-1.255h20.08v1.255c0,0.692-0.564,1.255-1.256,1.255h-17.568
		C124.964,86.245,124.4,85.683,124.4,84.99z M136.951,91.266h-5.021v-2.51h5.021V91.266z"/>
	<path fill="#00539F" d="M131.93,128.915h2.51v2.51h-2.51V128.915z"/>
	<path fill="#00539F" d="M139.459,138.954h2.512v2.51h-2.512V138.954z"/>
	<path fill="#00539F" d="M136.951,128.915h5.02v2.51h-5.02V128.915z"/>
	<path fill="#00539F" d="M131.93,138.954h5.021v2.51h-5.021V138.954z"/>
</g>
</svg>
