<?xml version="1.0" encoding="utf-8"?>
<!-- Generator: Adobe Illustrator 14.0.0, SVG Export Plug-In . SVG Version: 6.00 Build 43363)  -->
<!DOCTYPE svg PUBLIC "-//W3C//DTD SVG 1.1 Basic//EN" "http://www.w3.org/Graphics/SVG/1.1/DTD/svg11-basic.dtd">
<svg version="1.1" baseProfile="basic" id="Layer_1"
	 xmlns="http://www.w3.org/2000/svg" xmlns:xlink="http://www.w3.org/1999/xlink" x="0px" y="0px" width="216px" height="216px"
	 viewBox="0 0 216 216" xml:space="preserve">
<g>
	<path fill="#00539F" d="M153.341,150.346c0-0.014,0-0.029-0.002-0.043c-0.005-0.059-0.014-0.117-0.025-0.172
		c-0.002-0.006-0.003-0.012-0.005-0.018c-0.011-0.053-0.026-0.102-0.043-0.15c-0.005-0.014-0.009-0.027-0.015-0.039
		c-0.016-0.045-0.035-0.088-0.055-0.131c-0.004-0.008-0.007-0.016-0.011-0.023l-7.915-15.613v-27.049h-17.18v-0.017h-3.235v2.737
		c1.441,0.57,2.471,1.959,2.471,3.602c0,2.148-1.748,3.898-3.897,3.898s-3.898-1.75-3.898-3.898c0-1.672,1.063-3.083,2.544-3.634
		v-2.705h-17.466c-0.683,0-1.245-0.608-1.352-1.401h-0.048v-8.161c1.027,0.933,2.387,1.507,3.881,1.507
		c3.189,0,5.784-2.595,5.784-5.785c0-3.189-2.595-5.784-5.784-5.784c-1.494,0-2.854,0.573-3.881,1.507v-9.049H63.248
		c-1.58,0-2.865,1.285-2.865,2.865v51.367l-7.916,15.613c-0.003,0.008-0.007,0.016-0.009,0.023c-0.021,0.043-0.04,0.086-0.057,0.131
		c-0.005,0.012-0.01,0.025-0.014,0.039c-0.018,0.049-0.031,0.1-0.044,0.152c-0.001,0.004-0.003,0.01-0.003,0.014
		c-0.013,0.057-0.021,0.115-0.027,0.174c0,0.014,0,0.029-0.001,0.043c-0.003,0.031-0.005,0.063-0.005,0.094v3.754
		c0,1.875,1.525,3.402,3.402,3.402h94.232c1.877,0,3.402-1.527,3.402-3.402v-3.754C153.345,150.408,153.343,150.377,153.341,150.346
		z M103.388,92.119c0.486-1.596,1.949-2.768,3.702-2.768c2.149,0,3.897,1.75,3.897,3.898c0,2.15-1.748,3.898-3.897,3.898
		c-1.499,0-2.784-0.859-3.433-2.104h-2.923v10.377c0,2.299,1.738,4.169,3.874,4.169h14.504c-0.91,1.022-1.469,2.364-1.469,3.839
		c0,3.189,2.595,5.784,5.785,5.784c3.189,0,5.784-2.595,5.784-5.784c0-1.475-0.559-2.816-1.469-3.839h8.448v17.321H69.46v-11.391
		v-3.617V89.002h31.274v3.117H103.388z M63.343,82.885h37.577c-0.109,0.385-0.186,0.785-0.186,1.209v1.947H68.821
		c-1.279,0-2.32,1.041-2.32,2.32v23.543v3.617v12.029c0,1.279,1.041,2.322,2.32,2.322h68.011c1.279,0,2.321-1.041,2.321-2.322
		v-17.96h2.151c0.35,0,0.683-0.066,1.005-0.16v23.599H63.343V82.885z M62.772,135.99h80.108l6.575,12.969h-32.518l-1.633-5.918
		c-0.332-1.205-1.438-2.047-2.687-2.047H93.034c-1.25,0-2.355,0.842-2.688,2.047l-1.633,5.918H56.196L62.772,135.99z
		 M113.867,148.959H91.786l1.379-5.004h19.322L113.867,148.959z M150.386,154.193c0,0.244-0.198,0.443-0.443,0.443H55.71
		c-0.244,0-0.442-0.199-0.442-0.443v-2.275h95.118V154.193z"/>
	<path fill="#00539F" d="M160.792,70.365l-35.39-9.705c-2.06-0.565-4.23,0.779-4.838,2.996l-2.458,8.963l2.745,0.752
		c0.938-1.218,2.549-1.82,4.12-1.389c2.073,0.568,3.296,2.717,2.728,4.791c-0.568,2.072-2.717,3.297-4.789,2.729
		c-1.445-0.396-2.46-1.565-2.761-2.937l-2.907-0.798l-2.319,8.457c-0.607,2.217,0.574,4.48,2.634,5.045l13.533,3.712
		c-1.148,0.745-2.043,1.892-2.433,3.313c-0.844,3.076,0.973,6.266,4.05,7.109c3.075,0.843,6.264-0.973,7.107-4.049
		c0.391-1.422,0.206-2.865-0.4-4.092l13.532,3.712c2.06,0.564,4.229-0.78,4.838-2.997l5.641-20.568
		C164.033,73.193,162.853,70.93,160.792,70.365z M137.513,92.15l-0.751,2.74c1.105,0.95,1.645,2.469,1.233,3.965
		c-0.568,2.073-2.717,3.298-4.79,2.729c-2.072-0.568-3.297-2.717-2.729-4.79c0.411-1.497,1.648-2.528,3.084-2.78l0.752-2.74
		l-16.095-4.414c-0.73-0.201-1.127-1.086-0.884-1.974l1.681-6.128c0.741,1.212,1.922,2.158,3.396,2.563
		c3.076,0.844,6.265-0.973,7.108-4.049c0.843-3.076-0.973-6.265-4.049-7.107c-1.475-0.405-2.973-0.193-4.229,0.471l0.786-2.868
		l31.729,8.702c0.729,0.199,1.126,1.085,0.883,1.973l-4.695,17.119L137.513,92.15z M161.014,74.749l-5.641,20.568
		c-0.243,0.888-1.036,1.447-1.766,1.247l-1.251-0.343l4.695-17.119c0.607-2.218-0.573-4.48-2.633-5.046l-31.729-8.701l0.285-1.039
		c0.244-0.887,1.036-1.446,1.767-1.246l35.39,9.705C160.861,72.977,161.257,73.861,161.014,74.749z"/>
</g>
</svg>
