<?xml version="1.0" encoding="utf-8"?>
<!-- Generator: Adobe Illustrator 14.0.0, SVG Export Plug-In . SVG Version: 6.00 Build 43363)  -->
<!DOCTYPE svg PUBLIC "-//W3C//DTD SVG 1.1 Basic//EN" "http://www.w3.org/Graphics/SVG/1.1/DTD/svg11-basic.dtd">
<svg version="1.1" baseProfile="basic" id="Layer_1"
	 xmlns="http://www.w3.org/2000/svg" xmlns:xlink="http://www.w3.org/1999/xlink" x="0px" y="0px" width="216px" height="216px"
	 viewBox="0 0 216 216" xml:space="preserve">
<g>
	<g>
		<path fill="#00539F" d="M164.223,77.473h-36.365c-0.867-2.445-3.203-4.202-5.942-4.202h-16.811c-3.476,0-6.304,2.828-6.304,6.305
			v54.635c0,3.477,2.828,6.304,6.304,6.304h16.811c2.739,0,5.075-1.756,5.942-4.202h32.162c1.16,0,2.102-0.941,2.102-2.102
			c0-5.793-4.714-10.506-10.507-10.506h-6.444v-4.203h19.053c3.476,0,6.305-2.828,6.305-6.304v-29.42
			C170.527,80.301,167.698,77.473,164.223,77.473z M166.324,83.777v23.115h-38.105V81.676h36.004
			C165.381,81.676,166.324,82.619,166.324,83.777z M128.219,123.704v-4.203h4.203v4.203H128.219z M103.003,85.879h21.014v4.202
			h-21.014V85.879z M105.104,77.473h16.811c1.157,0,2.102,0.943,2.102,2.103v2.101h-21.014v-2.101
			C103.003,78.416,103.945,77.473,105.104,77.473z M121.915,136.312h-16.811c-1.159,0-2.101-0.943-2.101-2.102V94.284h21.014v39.926
			C124.017,135.368,123.072,136.312,121.915,136.312z M157.559,132.109h-29.34v-4.204h23.396
			C154.355,127.905,156.691,129.663,157.559,132.109z M140.967,123.704h-4.342v-4.203h4.342V123.704z M164.223,115.298h-36.004
			v-4.203h38.105v2.103C166.324,114.355,165.381,115.298,164.223,115.298z"/>
		<path fill="#00539F" d="M113.51,119.501c-3.477,0-6.305,2.828-6.305,6.303c0,3.478,2.828,6.306,6.305,6.306
			c3.476,0,6.304-2.828,6.304-6.306C119.813,122.329,116.985,119.501,113.51,119.501z M113.51,127.905
			c-1.158,0-2.102-0.942-2.102-2.102c0-1.157,0.943-2.1,2.102-2.1s2.102,0.942,2.102,2.1
			C115.611,126.963,114.668,127.905,113.51,127.905z"/>
		<path fill="#00539F" d="M115.607,113.197c0,1.159-0.941,2.101-2.102,2.101c-1.161,0-2.102-0.941-2.102-2.101
			c0-1.16,0.94-2.103,2.102-2.103C114.666,111.095,115.607,112.037,115.607,113.197z"/>
	</g>
</g>
<g>
	<path fill="#FFFFFF" d="M104.834,141.22H50.497c-1.973,0-3.574-1.6-3.574-3.574v-21.818c0-9.101,7.377-16.479,16.479-16.479h28.527
		c9.101,0,16.479,7.378,16.479,16.479v21.818C108.408,139.62,106.808,141.22,104.834,141.22z"/>
	<path fill="#00539F" d="M94.193,98.396v-8.002c0-5.157-4.196-9.354-9.354-9.354H70.492c-5.158,0-9.354,4.197-9.354,9.354v8.002
		c-8.688,0.973-15.464,8.362-15.464,17.306v22.244c0,2.487,2.023,4.511,4.511,4.511h54.961c2.488,0,4.51-2.023,4.51-4.511v-22.244
		C109.656,106.758,102.88,99.368,94.193,98.396z M63.013,90.394c0-4.123,3.355-7.479,7.479-7.479h14.347
		c4.124,0,7.479,3.356,7.479,7.479v7.893c-0.35-0.001-1.979,0-2.796,0v-7.893c0-2.582-2.101-4.683-4.683-4.683H70.492
		c-2.583,0-4.683,2.101-4.683,4.683v8.242c0,0.519,0.419,0.938,0.937,0.938c0.519,0,0.938-0.419,0.938-0.938v-8.242
		c0-1.548,1.26-2.809,2.809-2.809h14.347c1.549,0,2.809,1.261,2.809,2.809v7.893c-2.498,0-24.317-0.001-24.635,0V90.394z
		 M50.02,140.573c-1.362-0.102-2.472-1.24-2.472-2.665v-3.657h9.68c0.517,0,0.937-0.42,0.937-0.938s-0.419-0.938-0.937-0.938h-9.68
		v-16.675c0-8.569,6.973-15.541,15.542-15.541h29.152c8.552,0,15.541,6.956,15.541,15.541v16.675H56.648
		c-0.518,0-0.938,0.42-0.938,0.938s0.42,0.938,0.938,0.938h51.134c-0.001,3.999,0.004,3.664-0.008,3.859
		c-0.105,1.406-1.291,2.452-2.592,2.47C105.155,140.581,50.263,140.589,50.02,140.573z"/>
	<path fill="#00539F" d="M67.756,122.069h5.311v5.311c0,0.518,0.419,0.938,0.938,0.938h7.322c0.518,0,0.938-0.42,0.938-0.938v-5.311
		h5.311c0.518,0,0.938-0.42,0.938-0.938v-7.322c0-0.517-0.419-0.937-0.938-0.937h-5.311v-5.312c0-0.518-0.42-0.938-0.938-0.938
		h-7.322c-0.518,0-0.938,0.42-0.938,0.938v5.312h-5.311c-0.518,0-0.938,0.42-0.938,0.937v7.322
		C66.818,121.649,67.238,122.069,67.756,122.069z M68.693,114.747h5.312c0.518,0,0.938-0.42,0.938-0.938v-5.311h5.447v5.311
		c0,0.518,0.42,0.938,0.938,0.938h5.312v5.447h-5.312c-0.518,0-0.938,0.42-0.938,0.938v5.312h-5.447v-5.312
		c0-0.518-0.419-0.938-0.938-0.938h-5.312V114.747z"/>
</g>
<path fill="#00539F" d="M58.138,99.771"/>
</svg>
