<?xml version="1.0" encoding="utf-8"?>
<!-- Generator: Adobe Illustrator 14.0.0, SVG Export Plug-In . SVG Version: 6.00 Build 43363)  -->
<!DOCTYPE svg PUBLIC "-//W3C//DTD SVG 1.1 Basic//EN" "http://www.w3.org/Graphics/SVG/1.1/DTD/svg11-basic.dtd">
<svg version="1.1" baseProfile="basic" id="Layer_1"
	 xmlns="http://www.w3.org/2000/svg" xmlns:xlink="http://www.w3.org/1999/xlink" x="0px" y="0px" width="216px" height="216px"
	 viewBox="0 0 216 216" xml:space="preserve">
<polygon fill="#FFFFFF" points="123.198,95.695 123.588,112.829 142.943,111.645 141.426,99.303 134.021,95.506 "/>
<g>
	<g>
		<path fill="#00539F" d="M132.992,94.443h-9.765c-0.83,0-1.504,0.674-1.504,1.504v15.578c0,0.831,0.674,1.505,1.504,1.505
			c0.831,0,1.506-0.674,1.506-1.505V97.453h8.259c4.368,0,7.922,3.552,7.922,7.919v5.832h-16.181v-0.816
			c0-0.831-0.675-1.504-1.506-1.504c-0.83,0-1.504,0.673-1.504,1.504v2.322c0,0.83,0.674,1.504,1.504,1.504h19.192
			c0.831,0,1.504-0.674,1.504-1.504v-7.338C143.924,99.346,139.021,94.443,132.992,94.443z"/>
	</g>
</g>
<g>
	<g>
		<path fill="#00539F" d="M132.084,132.014c-2.924,0-5.303,2.378-5.303,5.302s2.379,5.303,5.303,5.303s5.302-2.379,5.302-5.303
			S135.008,132.014,132.084,132.014z M132.084,139.608c-1.264,0-2.291-1.028-2.291-2.293c0-1.264,1.027-2.291,2.291-2.291
			s2.292,1.027,2.292,2.291C134.376,138.58,133.348,139.608,132.084,139.608z"/>
	</g>
</g>
<g>
	<g>
		<path fill="#00539F" d="M142.42,119.645c-0.832,0-1.506,0.673-1.506,1.505v4.518c0,0.83,0.674,1.504,1.506,1.504
			c0.831,0,1.504-0.674,1.504-1.504v-4.518C143.924,120.317,143.251,119.645,142.42,119.645z"/>
	</g>
</g>
<g>
	<g>
		<path fill="#00539F" d="M84.238,132.014c-2.925,0-5.303,2.378-5.303,5.302s2.378,5.303,5.303,5.303
			c2.923,0,5.302-2.379,5.302-5.303S87.161,132.014,84.238,132.014z M84.238,139.608c-1.265,0-2.293-1.029-2.293-2.293
			s1.028-2.292,2.293-2.292c1.263,0,2.292,1.028,2.292,2.292S85.501,139.608,84.238,139.608z"/>
	</g>
</g>
<g>
	<g>
		<path fill="#00539F" d="M152.272,131.554h-1.215v-26.182c0-9.959-8.104-18.062-18.065-18.062h-15.391V68.854
			c0-0.831-0.674-1.505-1.506-1.505h-48.5c-0.831,0-1.506,0.674-1.506,1.505v62.699h-2.219c-0.831,0-1.504,0.675-1.504,1.506
			c0,0.83,0.673,1.505,1.504,1.505h2.219v2.751c0,0.832,0.675,1.506,1.506,1.506h5.733c0.736,5.363,5.346,9.51,10.909,9.51
			c6.072,0,11.014-4.941,11.014-11.016c0-6.072-4.941-11.015-11.014-11.015c-5.563,0-10.173,4.146-10.909,9.51h-4.229v-1.246h1.504
			c0.831,0,1.506-0.675,1.506-1.505c0-0.831-0.675-1.506-1.506-1.506h-1.504v-6.82h43.045c0.831,0,1.505-0.675,1.505-1.506
			s-0.674-1.506-1.505-1.506H69.101V70.359h45.49v18.456v32.906h-4.388c-0.831,0-1.505,0.675-1.505,1.506s0.674,1.506,1.505,1.506
			h4.388v11.077H94.424c-0.831,0-1.505,0.675-1.505,1.505c0,0.832,0.674,1.506,1.505,1.506h26.751
			c0.737,5.363,5.346,9.51,10.909,9.51s10.172-4.146,10.91-9.51h6.557c0.831,0,1.507-0.674,1.507-1.506v-2.751h1.215
			c0.831,0,1.505-0.675,1.505-1.505C153.777,132.229,153.104,131.554,152.272,131.554z M84.238,129.311
			c4.413,0,8.005,3.591,8.005,8.005s-3.592,8.005-8.005,8.005c-4.415,0-8.006-3.591-8.006-8.005S79.823,129.311,84.238,129.311z
			 M132.084,145.32c-4.412,0-8.003-3.589-8.006-8.002c0-0.001,0-0.001,0-0.003v-0.002c0.003-4.413,3.594-8.003,8.006-8.003
			c4.415,0,8.006,3.591,8.006,8.005S136.499,145.32,132.084,145.32z M148.047,135.811h-5.054c-0.737-5.364-5.346-9.51-10.909-9.51
			s-10.172,4.146-10.909,9.51h-3.573V90.32h15.391c8.301,0,15.054,6.752,15.054,15.052v26.183h-2.508
			c-0.831,0-1.504,0.674-1.504,1.505c0,0.83,0.673,1.506,1.504,1.506h2.509V135.811L148.047,135.811z"/>
	</g>
</g>
<g>
	<g>
		<g>
			<g>
				<path fill="#00539F" d="M107.538,105.254c-3.19-3.188-2.98-2.986-3.07-3.054l-8.441-6.232l3.273-3.275
					c2.633,0.938,5.615,0.29,7.622-1.716c2.185-2.187,2.759-5.528,1.427-8.315c-0.311-0.649-1.171-0.798-1.68-0.289l-2.699,2.7
					c-0.407,0.406-1.069,0.406-1.477,0c-0.408-0.408-0.408-1.068,0-1.477l2.7-2.699c0.509-0.509,0.36-1.369-0.288-1.68
					c-2.788-1.332-6.13-0.758-8.316,1.428c-2.006,2.007-2.653,4.988-1.717,7.621l-3.776,3.776c-0.769-0.599,0.246,0.423-6.997-7.257
					l0.76-0.76c0.48-0.479,0.38-1.283-0.202-1.633l-5.589-3.354c-1.466-0.879-3.332-0.648-4.54,0.559
					c-1.209,1.209-1.439,3.076-0.56,4.541l3.354,5.59c0.349,0.582,1.152,0.68,1.632,0.201l0.716-0.716
					c7.206,7.64,6.258,6.602,6.827,7.334c0.014,0.019,0.029,0.032,0.043,0.05l-3.349,3.349c-2.633-0.938-5.614-0.29-7.621,1.717
					c-2.186,2.186-2.76,5.527-1.428,8.315c0.312,0.649,1.171,0.796,1.68,0.288l2.7-2.7c0.407-0.407,1.068-0.406,1.477,0
					c0.407,0.408,0.407,1.068,0,1.477l-2.701,2.699c-0.509,0.509-0.36,1.37,0.289,1.68c1.001,0.479,2.075,0.712,3.141,0.712
					c1.899,0,3.774-0.739,5.175-2.139c2.006-2.008,2.653-4.989,1.716-7.621l2.861-2.859l6.659,8.092
					c0.05,0.063-0.116-0.109,2.861,2.869c1.085,1.084,2.526,1.646,3.944,1.646c1.039,0,2.066-0.303,2.929-0.924
					C109.506,111.302,109.818,107.533,107.538,105.254z M80.452,87c-0.405-0.43-1.083-0.437-1.498-0.022l-0.53,0.53l-2.666-4.443
					c-0.386-0.642-0.286-1.461,0.245-1.99c0.53-0.529,1.348-0.631,1.99-0.244l4.443,2.665l-0.53,0.53
					c-0.398,0.4-0.408,1.043-0.021,1.454c8.321,8.824,7.013,7.497,7.723,8.05l-1.584,1.583C87.478,94.408,88.749,95.797,80.452,87z
					 M85.65,103.391c-0.313,0.313-0.395,0.789-0.205,1.188c0.953,1.99,0.542,4.378-1.02,5.939c-1,1-2.34,1.527-3.697,1.527
					c-0.243,0-0.487-0.017-0.73-0.051l1.477-1.477c1.223-1.224,1.223-3.204,0-4.428c-1.221-1.221-3.208-1.221-4.428,0l-1.477,1.476
					c-0.227-1.595,0.296-3.247,1.477-4.428c1.562-1.562,3.947-1.972,5.939-1.021c0.399,0.19,0.875,0.109,1.188-0.203l12.669-12.667
					c0.312-0.313,0.394-0.789,0.203-1.188c-0.952-1.992-0.541-4.379,1.02-5.94c1.181-1.181,2.833-1.702,4.429-1.477l-1.477,1.477
					c-0.592,0.592-0.918,1.378-0.918,2.214c0,0.837,0.326,1.623,0.918,2.215c1.22,1.22,3.207,1.22,4.428,0l1.478-1.478
					c0.226,1.597-0.298,3.248-1.478,4.429c-1.563,1.562-3.949,1.972-5.939,1.02c-0.399-0.189-0.876-0.108-1.188,0.205L85.65,103.391
					z M91.958,100.036l2.576-2.577l2.624,1.939l-3.137,3.137C91.889,99.943,92.022,100.1,91.958,100.036z M105.653,111.504
					c-1.217,0.877-3.013,0.66-4.177-0.504l-2.758-2.759l-3.364-4.087l3.502-3.502l4.309,3.181l2.896,2.896
					C107.386,108.054,107.301,110.317,105.653,111.504z"/>
			</g>
		</g>
		<g>
			<g>
				<path fill="#00539F" d="M104.567,108.026l-4.174-4.176c-0.408-0.407-1.068-0.407-1.477,0c-0.407,0.408-0.407,1.068,0,1.477
					l4.175,4.174c0.408,0.408,1.068,0.408,1.476,0C104.976,109.094,104.976,108.434,104.567,108.026z"/>
			</g>
		</g>
	</g>
</g>
</svg>
